<mxfile host="app.diagrams.net" agent="Mozilla/5.0 (X11; Linux x86_64; rv:128.0) Gecko/20100101 Firefox/128.0" version="26.0.4">
  <diagram name="Page-1" id="EMa1pMTZzpA0k4Gmwb4X">
    <mxGraphModel dx="1434" dy="1816" grid="1" gridSize="10" guides="1" tooltips="1" connect="1" arrows="1" fold="1" page="1" pageScale="1" pageWidth="827" pageHeight="1169" math="0" shadow="0">
      <root>
        <mxCell id="0" />
        <mxCell id="1" parent="0" />
        <mxCell id="xk-oOxLGbY3HGCxId3EP-109" value="" style="rounded=0;whiteSpace=wrap;html=1;fillColor=#dae8fc;strokeColor=#6c8ebf;strokeWidth=2;" parent="1" vertex="1">
          <mxGeometry x="170" y="170" width="60" height="100" as="geometry" />
        </mxCell>
        <mxCell id="xk-oOxLGbY3HGCxId3EP-110" value="" style="rounded=0;whiteSpace=wrap;html=1;fillColor=#fff2cc;strokeColor=#d6b656;strokeWidth=2;" parent="1" vertex="1">
          <mxGeometry x="180" y="180" width="40" height="40" as="geometry" />
        </mxCell>
        <mxCell id="xk-oOxLGbY3HGCxId3EP-111" value="" style="rounded=0;whiteSpace=wrap;html=1;fillColor=#fff2cc;strokeColor=#d6b656;strokeWidth=2;" parent="1" vertex="1">
          <mxGeometry x="180" y="220" width="40" height="40" as="geometry" />
        </mxCell>
        <mxCell id="xk-oOxLGbY3HGCxId3EP-113" value="" style="rounded=0;whiteSpace=wrap;html=1;fillColor=#dae8fc;strokeColor=#6c8ebf;strokeWidth=2;" parent="1" vertex="1">
          <mxGeometry x="170" y="270" width="60" height="100" as="geometry" />
        </mxCell>
        <mxCell id="xk-oOxLGbY3HGCxId3EP-114" value="" style="rounded=0;whiteSpace=wrap;html=1;fillColor=#fff2cc;strokeColor=#d6b656;strokeWidth=2;" parent="1" vertex="1">
          <mxGeometry x="180" y="280" width="40" height="40" as="geometry" />
        </mxCell>
        <mxCell id="xk-oOxLGbY3HGCxId3EP-115" value="" style="rounded=0;whiteSpace=wrap;html=1;fillColor=#fff2cc;strokeColor=#d6b656;strokeWidth=2;" parent="1" vertex="1">
          <mxGeometry x="180" y="320" width="40" height="40" as="geometry" />
        </mxCell>
        <mxCell id="xk-oOxLGbY3HGCxId3EP-116" value="" style="rounded=0;whiteSpace=wrap;html=1;fillColor=#dae8fc;strokeColor=#6c8ebf;strokeWidth=2;" parent="1" vertex="1">
          <mxGeometry x="170" y="370" width="60" height="100" as="geometry" />
        </mxCell>
        <mxCell id="xk-oOxLGbY3HGCxId3EP-117" value="" style="rounded=0;whiteSpace=wrap;html=1;fillColor=#fff2cc;strokeColor=#d6b656;strokeWidth=2;" parent="1" vertex="1">
          <mxGeometry x="180" y="380" width="40" height="40" as="geometry" />
        </mxCell>
        <mxCell id="xk-oOxLGbY3HGCxId3EP-118" value="" style="rounded=0;whiteSpace=wrap;html=1;fillColor=#fff2cc;strokeColor=#d6b656;strokeWidth=2;" parent="1" vertex="1">
          <mxGeometry x="180" y="420" width="40" height="40" as="geometry" />
        </mxCell>
        <mxCell id="xk-oOxLGbY3HGCxId3EP-119" value="" style="rounded=0;whiteSpace=wrap;html=1;fillColor=#dae8fc;strokeColor=#6c8ebf;strokeWidth=2;" parent="1" vertex="1">
          <mxGeometry x="170" y="470" width="60" height="100" as="geometry" />
        </mxCell>
        <mxCell id="xk-oOxLGbY3HGCxId3EP-120" value="" style="rounded=0;whiteSpace=wrap;html=1;fillColor=#fff2cc;strokeColor=#d6b656;strokeWidth=2;" parent="1" vertex="1">
          <mxGeometry x="180" y="480" width="40" height="40" as="geometry" />
        </mxCell>
        <mxCell id="xk-oOxLGbY3HGCxId3EP-121" value="" style="rounded=0;whiteSpace=wrap;html=1;fillColor=#fff2cc;strokeColor=#d6b656;strokeWidth=2;" parent="1" vertex="1">
          <mxGeometry x="180" y="520" width="40" height="40" as="geometry" />
        </mxCell>
        <mxCell id="xk-oOxLGbY3HGCxId3EP-98" style="rounded=0;orthogonalLoop=1;jettySize=auto;html=1;entryX=0;entryY=0.5;entryDx=0;entryDy=0;endArrow=none;endFill=0;strokeWidth=2;strokeColor=#6c8ebf;fillColor=#dae8fc;" parent="1" source="xk-oOxLGbY3HGCxId3EP-94" edge="1">
          <mxGeometry relative="1" as="geometry">
            <mxPoint x="170" y="520" as="targetPoint" />
          </mxGeometry>
        </mxCell>
        <mxCell id="xk-oOxLGbY3HGCxId3EP-94" value="&lt;div&gt;&lt;font color=&quot;#1a5fb4&quot;&gt;&lt;b&gt;&lt;font style=&quot;font-size: 14px;&quot;&gt;Batch 4&lt;/font&gt;&lt;/b&gt;&lt;/font&gt;&lt;/div&gt;" style="text;html=1;align=center;verticalAlign=middle;whiteSpace=wrap;rounded=0;" parent="1" vertex="1">
          <mxGeometry x="80" y="505" width="60" height="30" as="geometry" />
        </mxCell>
        <mxCell id="xk-oOxLGbY3HGCxId3EP-95" style="rounded=0;orthogonalLoop=1;jettySize=auto;html=1;entryX=0;entryY=0.5;entryDx=0;entryDy=0;endArrow=none;endFill=0;strokeWidth=2;fillColor=#dae8fc;strokeColor=#6c8ebf;" parent="1" source="xk-oOxLGbY3HGCxId3EP-91" edge="1">
          <mxGeometry relative="1" as="geometry">
            <mxPoint x="170" y="220" as="targetPoint" />
          </mxGeometry>
        </mxCell>
        <mxCell id="xk-oOxLGbY3HGCxId3EP-91" value="&lt;font color=&quot;#1a5fb4&quot;&gt;&lt;b&gt;&lt;font style=&quot;font-size: 14px;&quot;&gt;Batch 1&lt;/font&gt;&lt;/b&gt;&lt;/font&gt;" style="text;html=1;align=center;verticalAlign=middle;whiteSpace=wrap;rounded=0;" parent="1" vertex="1">
          <mxGeometry x="80" y="205" width="60" height="30" as="geometry" />
        </mxCell>
        <mxCell id="xk-oOxLGbY3HGCxId3EP-96" style="rounded=0;orthogonalLoop=1;jettySize=auto;html=1;entryX=0;entryY=0.5;entryDx=0;entryDy=0;endArrow=none;endFill=0;strokeWidth=2;strokeColor=#6c8ebf;fillColor=#dae8fc;" parent="1" source="xk-oOxLGbY3HGCxId3EP-92" edge="1">
          <mxGeometry relative="1" as="geometry">
            <mxPoint x="170" y="320" as="targetPoint" />
          </mxGeometry>
        </mxCell>
        <mxCell id="xk-oOxLGbY3HGCxId3EP-92" value="&lt;div&gt;&lt;font color=&quot;#1a5fb4&quot;&gt;&lt;b&gt;&lt;font style=&quot;font-size: 14px;&quot;&gt;Batch 2&lt;/font&gt;&lt;/b&gt;&lt;/font&gt;&lt;/div&gt;" style="text;html=1;align=center;verticalAlign=middle;whiteSpace=wrap;rounded=0;" parent="1" vertex="1">
          <mxGeometry x="80" y="305" width="60" height="30" as="geometry" />
        </mxCell>
        <mxCell id="xk-oOxLGbY3HGCxId3EP-97" style="rounded=0;orthogonalLoop=1;jettySize=auto;html=1;entryX=0;entryY=0.5;entryDx=0;entryDy=0;endArrow=none;endFill=0;strokeWidth=2;strokeColor=#6c8ebf;fillColor=#dae8fc;" parent="1" source="xk-oOxLGbY3HGCxId3EP-93" edge="1">
          <mxGeometry relative="1" as="geometry">
            <mxPoint x="170" y="420" as="targetPoint" />
          </mxGeometry>
        </mxCell>
        <mxCell id="xk-oOxLGbY3HGCxId3EP-93" value="&lt;div&gt;&lt;font color=&quot;#1a5fb4&quot;&gt;&lt;b&gt;&lt;font style=&quot;font-size: 14px;&quot;&gt;Batch 3&lt;/font&gt;&lt;/b&gt;&lt;/font&gt;&lt;/div&gt;" style="text;html=1;align=center;verticalAlign=middle;whiteSpace=wrap;rounded=0;" parent="1" vertex="1">
          <mxGeometry x="80" y="405" width="60" height="30" as="geometry" />
        </mxCell>
        <mxCell id="xk-oOxLGbY3HGCxId3EP-152" style="rounded=0;orthogonalLoop=1;jettySize=auto;html=1;fillColor=#fff2cc;strokeColor=#d6b656;strokeWidth=2;endArrow=none;endFill=0;" parent="1" source="xk-oOxLGbY3HGCxId3EP-151" edge="1">
          <mxGeometry relative="1" as="geometry">
            <mxPoint x="220" y="200" as="targetPoint" />
          </mxGeometry>
        </mxCell>
        <mxCell id="xk-oOxLGbY3HGCxId3EP-151" value="&lt;font color=&quot;#e5a50a&quot; style=&quot;font-size: 14px;&quot;&gt;&lt;b&gt;&lt;font&gt;Neuron 1&lt;/font&gt;&lt;/b&gt;&lt;/font&gt;&lt;font color=&quot;#e5a50a&quot; style=&quot;font-size: 14px;&quot;&gt;&lt;b&gt;&lt;br&gt;&lt;/b&gt;&lt;/font&gt;" style="text;html=1;align=center;verticalAlign=middle;whiteSpace=wrap;rounded=0;" parent="1" vertex="1">
          <mxGeometry x="260" y="185" width="80" height="30" as="geometry" />
        </mxCell>
        <mxCell id="xk-oOxLGbY3HGCxId3EP-153" style="rounded=0;orthogonalLoop=1;jettySize=auto;html=1;fillColor=#fff2cc;strokeColor=#d6b656;strokeWidth=2;endArrow=none;endFill=0;" parent="1" source="xk-oOxLGbY3HGCxId3EP-154" edge="1">
          <mxGeometry relative="1" as="geometry">
            <mxPoint x="220" y="240" as="targetPoint" />
          </mxGeometry>
        </mxCell>
        <mxCell id="xk-oOxLGbY3HGCxId3EP-154" value="&lt;font color=&quot;#e5a50a&quot; style=&quot;font-size: 14px;&quot;&gt;&lt;b&gt;&lt;font&gt;Neuron 2&lt;/font&gt;&lt;/b&gt;&lt;/font&gt;&lt;font color=&quot;#e5a50a&quot; style=&quot;font-size: 14px;&quot;&gt;&lt;b&gt;&lt;font&gt;&lt;br&gt;&lt;/font&gt;&lt;/b&gt;&lt;/font&gt;" style="text;html=1;align=center;verticalAlign=middle;whiteSpace=wrap;rounded=0;" parent="1" vertex="1">
          <mxGeometry x="260" y="225" width="80" height="30" as="geometry" />
        </mxCell>
      </root>
    </mxGraphModel>
  </diagram>
</mxfile>
